<svg xmlns="http://www.w3.org/2000/svg" viewBox="0 0 64 64">
<rect x="5" y="5" width="46" height="52" rx="4" fill="#1E2A3A"/>
<rect x="9" y="9" width="38" height="34" rx="2" fill="#EEF2F7"/>
<line x1="28" y1="11" x2="28" y2="41" stroke="#7A93A8" stroke-width="1.5"/>
<line x1="11" y1="27" x2="45" y2="27" stroke="#7A93A8" stroke-width="1.5"/>
<line x1="19" y1="11" x2="19" y2="41" stroke="#CBD5E1" stroke-width="0.8"/>
<line x1="37" y1="11" x2="37" y2="41" stroke="#CBD5E1" stroke-width="0.8"/>
<line x1="11" y1="19" x2="45" y2="19" stroke="#CBD5E1" stroke-width="0.8"/>
<line x1="11" y1="35" x2="45" y2="35" stroke="#CBD5E1" stroke-width="0.8"/>
<circle cx="37" cy="19" r="3.5" fill="#1E2A3A" opacity="0.45"/>
<circle cx="37" cy="19" r="1.8" fill="#C2440C"/>
<line x1="9" y1="44" x2="47" y2="44" stroke="#2D3F52" stroke-width="1"/>
<rect x="9" y="45" width="38" height="12" fill="#0D1825"/>
<line x1="26" y1="44" x2="26" y2="57" stroke="#2D3F52" stroke-width="0.8"/>
<circle cx="49" cy="49" r="12" fill="#C2440C"/>
<circle cx="49" cy="45" r="4" fill="white"/>
<circle cx="49" cy="45" r="1.8" fill="#8C2800"/>
<path d="M45.5 48 Q49 56 49 56 Q49 56 52.5 48 Z" fill="white"/>
</svg>
