<svg xmlns="http://www.w3.org/2000/svg" viewBox="0 0 64 64">
<rect x="5" y="5" width="46" height="52" rx="4" fill="#1E2A3A"/>
<rect x="9" y="9" width="38" height="34" rx="2" fill="#EEF2F7"/>
<!-- Ribbon tabs layout -->
<!-- Tab bar row 1 -->
<rect x="11" y="11" width="10" height="7" rx="2" fill="#3B82F6"/>
<rect x="23" y="11" width="10" height="7" rx="2" fill="#D8E4EF" stroke="#B0BEC5" stroke-width="0.8"/>
<rect x="35" y="11" width="10" height="7" rx="2" fill="#D8E4EF" stroke="#B0BEC5" stroke-width="0.8"/>
<!-- Active tab content area -->
<rect x="11" y="18" width="34" height="24" rx="1" fill="#F8FAFC" stroke="#CBD5E1" stroke-width="0.8"/>
<line x1="9" y1="18" x2="47" y2="18" stroke="#3B82F6" stroke-width="1.5"/>
<!-- Content lines inside tab -->
<rect x="14" y="22" width="28" height="2.5" rx="1" fill="#B0BEC5"/>
<rect x="14" y="27" width="20" height="2" rx="1" fill="#CBD5E1"/>
<rect x="14" y="31" width="24" height="2" rx="1" fill="#CBD5E1"/>
<rect x="14" y="36" width="16" height="2" rx="1" fill="#CBD5E1"/>
<line x1="9" y1="44" x2="47" y2="44" stroke="#2D3F52" stroke-width="1"/>
<rect x="9" y="45" width="38" height="12" fill="#0D1825"/>
<line x1="26" y1="44" x2="26" y2="57" stroke="#2D3F52" stroke-width="0.8"/>
<circle cx="49" cy="49" r="12" fill="#C2440C"/>
<!-- Gear icon -->
<circle cx="49" cy="49" r="4" fill="none" stroke="white" stroke-width="2"/>
<circle cx="49" cy="49" r="1.5" fill="white"/>
<line x1="49" y1="41" x2="49" y2="43" stroke="white" stroke-width="2" stroke-linecap="round"/>
<line x1="49" y1="55" x2="49" y2="57" stroke="white" stroke-width="2" stroke-linecap="round"/>
<line x1="41" y1="49" x2="43" y2="49" stroke="white" stroke-width="2" stroke-linecap="round"/>
<line x1="55" y1="49" x2="57" y2="49" stroke="white" stroke-width="2" stroke-linecap="round"/>
<line x1="43.3" y1="43.3" x2="44.7" y2="44.7" stroke="white" stroke-width="2" stroke-linecap="round"/>
<line x1="53.3" y1="53.3" x2="54.7" y2="54.7" stroke="white" stroke-width="2" stroke-linecap="round"/>
<line x1="54.7" y1="43.3" x2="53.3" y2="44.7" stroke="white" stroke-width="2" stroke-linecap="round"/>
<line x1="44.7" y1="53.3" x2="43.3" y2="54.7" stroke="white" stroke-width="2" stroke-linecap="round"/>
</svg>
